HIERARCHY
ROOT Hips
{
	OFFSET -3.958830 18.904000 13.208200
	CHANNELS 6 Xposition Yposition Zposition Zrotation Yrotation Xrotation 
	JOINT LHipJoint
	{
		OFFSET 0.000000 0.000000 0.000000
		CHANNELS 3 Zrotation Yrotation Xrotation
		JOINT LeftUpLeg
		{
			OFFSET 1.800000 -1.400000 0.085000
			CHANNELS 3 Zrotation Yrotation Xrotation
			JOINT LeftLeg
			{
				OFFSET 2.215000 -6.000000 0.000000
				CHANNELS 3 Zrotation Yrotation Xrotation
				JOINT LeftFoot
				{
					OFFSET 2.500000 -6.900000 0.000000
					CHANNELS 3 Zrotation Yrotation Xrotation
					JOINT LeftToeBase
					{
						OFFSET 0.200000 -0.500000 1.950000
						CHANNELS 3 Zrotation Yrotation Xrotation
						End Site
						{
							OFFSET 0.000000 0.000000 0.000000
						}
					}
				}
			}
		}
	}
	JOINT RHipJoint
	{
		OFFSET 0.000000 0.000000 0.000000
		CHANNELS 3 Zrotation Yrotation Xrotation
		JOINT RightUpLeg
		{
			OFFSET -1.800000 -1.400000 0.085000
			CHANNELS 3 Zrotation Yrotation Xrotation
			JOINT RightLeg
			{
				OFFSET -2.215000 -6.000000 0.000000
				CHANNELS 3 Zrotation Yrotation Xrotation
				JOINT RightFoot
				{
					OFFSET -2.500000 -6.900000 0.000000
					CHANNELS 3 Zrotation Yrotation Xrotation
					JOINT RightToeBase
					{
						OFFSET -0.200000 -0.500000 1.950000
						CHANNELS 3 Zrotation Yrotation Xrotation
						End Site
						{
							OFFSET 0.000000 0.000000 0.000000
						}
					}
				}
			}
		}
	}
	JOINT LowerBack
	{
		OFFSET 0.000000 0.000000 0.000000
		CHANNELS 3 Zrotation Yrotation Xrotation
		JOINT Spine
		{
			OFFSET -0.087000 1.940000 -0.288900
			CHANNELS 3 Zrotation Yrotation Xrotation
			JOINT Spine1
			{
				OFFSET 0.000000 1.950000 0.060000
				CHANNELS 3 Zrotation Yrotation Xrotation
				JOINT Neck
				{
					OFFSET 0.000000 0.000000 0.000000
					CHANNELS 3 Zrotation Yrotation Xrotation
					JOINT Neck1
					{
						OFFSET 0.000000 1.600000 0.340000
						CHANNELS 3 Zrotation Yrotation Xrotation
						JOINT Head
						{
							OFFSET 0.000000 1.667000 -0.240000
							CHANNELS 3 Zrotation Yrotation Xrotation
							End Site
							{
								OFFSET 0.000000 0.000000 0.000000
							}
						}
					}
				}
				JOINT LeftShoulder
				{
					OFFSET 0.000000 0.000000 0.000000
					CHANNELS 3 Zrotation Yrotation Xrotation
					JOINT LeftArm
					{
						OFFSET 2.700000 1.550000 -0.730000
						CHANNELS 3 Zrotation Yrotation Xrotation
						JOINT LeftForeArm
						{
							OFFSET 5.450000 0.000000 0.000000
							CHANNELS 3 Zrotation Yrotation Xrotation
							JOINT LeftHand
							{
								OFFSET 3.450000 0.000000 0.000000
								CHANNELS 3 Zrotation Yrotation Xrotation
								JOINT LeftHandIndex1
								{
									OFFSET 0.750000 0.000000 0.000000
									CHANNELS 3 Zrotation Yrotation Xrotation
									End Site
									{
										OFFSET 0.000000 0.000000 0.000000
									}
								}
							}
						}
					}
				}
				JOINT RightShoulder
				{
					OFFSET 0.000000 0.000000 0.000000
					CHANNELS 3 Zrotation Yrotation Xrotation
					JOINT RightArm
					{
						OFFSET -2.700000 1.550000 -0.730000
						CHANNELS 3 Zrotation Yrotation Xrotation
						JOINT RightForeArm
						{
							OFFSET -5.450000 0.000000 0.000000
							CHANNELS 3 Zrotation Yrotation Xrotation
							JOINT RightHand
							{
								OFFSET -3.450000 0.000000 0.000000
								CHANNELS 3 Zrotation Yrotation Xrotation
								JOINT RightHandIndex1
								{
									OFFSET -0.750000 0.000000 0.000000
									CHANNELS 3 Zrotation Yrotation Xrotation
									End Site
									{
										OFFSET 0.000000 0.000000 0.000000
									}
								}
							}
						}
					}
				}
			}
		}
	}
}
MOTION
Frames: 6
Frame Time: 0.016667
-1.451840 15.287970 0.421300 -8.289713 -24.866326 4.239991 -15.383853 11.005068 4.909306 9.515525 -9.157798 -39.924857 -15.449406 16.145008 44.262645 -0.006471 10.069082 1.140158 0.932900 0.471130 0.473930 18.410881 -9.184670 3.244917 -12.149092 6.226368 -28.270085 24.438792 -17.978689 38.947862 -1.178855 -8.367941 1.731411 0.587920 0.464300 0.120260 -3.754338 -1.450647 -8.382309 6.706656 2.481215 15.073389 -2.921460 4.519164 1.614747 -1.389651 -8.334050 -4.603480 -14.662851 5.855897 21.199236 2.765720 -0.960850 -12.617320 -29.938044 -0.265011 -2.310563 -36.151121 -7.958778 -2.405314 -62.546143 -70.983228 39.501671 -3.902993 3.393333 0.560100 0.251430 -0.299660 0.498850 31.619610 7.085910 3.252175 34.511666 1.385908 -2.942991 16.886859 9.814841 -0.458104 1.698654 -1.556767 -0.402150 0.538960 -0.144790 -0.330130 
-1.460400 15.250430 0.414940 -8.179351 -24.754043 3.537584 -15.428504 10.985345 4.946760 9.721429 -9.415567 -40.072709 -15.440636 16.599546 45.509332 0.098374 10.295391 1.066897 0.938810 0.481580 0.477460 18.375728 -9.014847 3.363950 -13.360106 6.295573 -28.987603 25.973461 -19.438296 40.316265 -1.322821 -8.821297 1.598572 0.565120 0.430230 0.114350 -3.639098 -1.683748 -8.543934 5.917369 2.287378 16.527078 -2.537919 4.349877 1.152900 -1.429095 -8.484003 -4.875097 -15.203613 5.909688 21.950781 3.487170 -1.093790 -13.368710 -29.938292 -0.703948 -2.214508 -35.843355 -7.744808 -2.941384 -61.594868 -70.386715 38.317912 -3.841009 3.399843 0.581830 0.210170 -0.264050 0.502480 31.828042 7.710211 3.585156 34.455900 1.121739 -3.274417 16.626964 10.531995 -0.346254 1.715472 -1.536454 -0.377470 0.529060 -0.162600 -0.320780 
-1.461050 15.186450 0.407160 -8.133158 -24.588782 1.856749 -15.490218 11.028803 4.947525 9.649235 -9.933829 -39.627527 -14.686486 17.053576 48.021801 0.219577 10.638335 0.943912 0.945730 0.473350 0.522780 18.311797 -8.746511 3.607538 -15.811533 6.267511 -29.984183 28.977672 -22.203239 42.358151 -1.592679 -9.586713 1.367262 0.517460 0.338230 0.101680 -3.439578 -2.126358 -8.832477 4.815324 1.945565 20.117635 -2.085829 4.137212 -0.114914 -1.214667 -8.595440 -5.296601 -16.022357 5.962293 23.938413 4.067160 -0.855760 -15.653300 -30.737153 -1.612858 -2.319940 -34.540220 -7.443861 -4.028470 -58.198114 -69.208055 35.052235 -3.715199 3.376111 0.676800 0.118470 -0.181420 0.481320 32.399474 8.784248 4.281058 33.933857 0.340406 -4.009590 16.590777 12.130291 -0.061333 1.723821 -1.478971 -0.362100 0.514620 -0.183960 -0.345340 
-1.464850 15.131050 0.402490 -8.270032 -24.385592 -0.298770 -15.547098 11.104402 4.889850 9.675715 -10.364575 -38.564875 -13.957149 17.529008 50.509324 0.354961 10.969403 0.814242 0.961130 0.483060 0.570240 18.251974 -8.452028 3.888561 -18.504417 6.163530 -30.946627 32.260253 -25.589047 44.840400 -1.915946 -10.451643 1.109230 0.470700 0.221920 0.093300 -3.252066 -2.625666 -9.104660 3.764531 1.527868 24.359812 -1.753586 3.802431 -1.577984 -0.897381 -8.725501 -5.840758 -17.201553 6.126237 26.752330 4.811080 -0.671280 -18.464020 -31.621927 -2.835436 -2.401912 -33.337646 -6.836068 -5.692566 -50.214925 -66.783859 28.010271 -3.544168 3.359724 0.776830 0.007170 -0.079110 0.455260 32.890236 10.158959 5.126375 33.718924 -0.528793 -4.876445 16.747541 13.789934 0.232343 1.743001 -1.424982 -0.329130 0.486230 -0.209070 -0.365640 
-1.473240 15.077900 0.401120 -8.487722 -24.293598 -1.957231 -15.623042 11.148118 4.801691 9.681682 -10.700040 -37.835355 -12.801000 17.810062 52.899658 0.467325 11.249013 0.708087 0.971510 0.490610 0.610620 18.196524 -8.097248 4.208261 -21.438378 6.018056 -32.597632 35.483162 -29.212785 47.378048 -2.221574 -11.290436 0.882434 0.433030 0.132680 0.085450 -3.058384 -3.140784 -9.334855 2.451158 1.464423 27.865394 -0.965492 3.528015 -3.144316 -0.680292 -8.679983 -6.280067 -18.143027 6.786397 29.595107 5.527970 -0.183020 -20.618000 -32.294127 -3.802683 -2.499205 -32.657048 -6.143184 -7.140127 -40.270858 -62.743753 19.719990 -3.413523 3.301049 0.852900 -0.076400 0.002100 0.432300 33.456834 11.187645 5.769292 33.366943 -1.269613 -5.452496 16.830990 14.352649 0.370816 1.760273 -1.369287 -0.302830 0.468190 -0.228920 -0.382710 
-1.482710 15.027220 0.405620 -8.649629 -24.382607 -3.205536 -15.713983 11.116941 4.761160 10.281283 -10.931385 -37.556416 -12.646046 18.672829 54.922329 0.602820 11.661750 0.571303 0.988480 0.503010 0.646700 18.146548 -7.707805 4.501129 -24.224924 5.781954 -34.460609 38.257710 -32.833595 49.892591 -2.497945 -12.039453 0.697194 0.407430 0.068690 0.085320 -2.871173 -3.620732 -9.546138 0.965261 1.705329 30.648026 0.024710 3.332096 -4.527328 -0.551186 -8.625897 -6.682156 -18.945099 7.191369 31.812529 6.136550 -0.053430 -22.367580 -32.877076 -4.655458 -2.552976 -32.189308 -5.607915 -7.971313 -33.634838 -58.514962 14.376624 -3.326812 3.238774 0.909820 -0.138150 0.065910 0.420100 34.148463 12.050789 6.397215 32.745194 -2.457768 -6.115075 17.352666 15.468513 0.556634 1.751223 -1.344006 -0.278070 0.458960 -0.247220 -0.392690 
